<?xml version="1.0" standalone="no"?>
<!DOCTYPE svg PUBLIC "-//W3C//DTD SVG 20010904//EN"
 "http://www.w3.org/TR/2001/REC-SVG-20010904/DTD/svg10.dtd">
<svg version="1.0" xmlns="http://www.w3.org/2000/svg"
 width="512.000000pt" height="512.000000pt" viewBox="0 0 512.000000 512.000000"
 preserveAspectRatio="xMidYMid meet">
<metadata>
Created by potrace 1.14, written by Peter Selinger 2001-2017
</metadata>
<g transform="translate(0.000000,512.000000) scale(0.100000,-0.100000)"
fill="#000000" stroke="none">
<path d="M1653 3700 c-101 -21 -182 -88 -238 -200 -47 -92 -66 -180 -66 -299
0 -120 19 -208 66 -301 84 -167 236 -239 392 -186 105 35 197 154 239 306 24
89 24 271 0 360 -26 96 -81 194 -138 245 -69 62 -171 92 -255 75z"/>
<path d="M3341 3694 c-99 -27 -166 -85 -220 -192 -48 -95 -65 -173 -65 -302 0
-300 150 -507 366 -503 117 2 219 75 283 203 47 93 66 181 66 301 0 119 -19
207 -66 299 -79 157 -221 233 -364 194z"/>
<path d="M1488 2280 c-286 -34 -515 -223 -606 -498 -22 -66 -26 -96 -26 -212
-1 -115 3 -146 22 -210 41 -129 87 -206 182 -300 94 -95 171 -141 300 -182
l75 -23 1125 0 1125 0 75 23 c129 41 206 87 300 182 95 94 141 171 182 300 19
64 23 95 22 210 0 116 -4 146 -26 212 -79 239 -261 412 -506 481 -76 21 -84
21 -1127 23 -577 1 -1080 -2 -1117 -6z m142 -465 l0 -175 -240 0 c-132 0 -240
2 -240 5 0 2 10 30 21 62 65 175 214 277 412 282 l47 1 0 -175z m570 0 l0
-175 -210 0 -210 0 0 175 0 175 210 0 210 0 0 -175z m570 0 l0 -175 -210 0
-210 0 0 175 0 175 210 0 210 0 0 -175z m570 0 l0 -175 -210 0 -210 0 0 175 0
175 210 0 210 0 0 -175z m285 164 c92 -17 160 -52 223 -116 54 -55 100 -132
116 -195 l6 -28 -240 0 -240 0 0 175 0 175 38 0 c21 0 65 -5 97 -11z m-1995
-664 l0 -175 -44 0 c-119 0 -228 43 -311 121 -54 51 -103 135 -119 202 l-6 27
240 0 240 0 0 -175z m570 0 l0 -175 -210 0 -210 0 0 175 0 175 210 0 210 0 0
-175z m570 0 l0 -175 -210 0 -210 0 0 175 0 175 210 0 210 0 0 -175z m570 0
l0 -175 -210 0 -210 0 0 175 0 175 210 0 210 0 0 -175z m624 148 c-16 -67 -65
-151 -119 -202 -83 -78 -192 -121 -311 -121 l-44 0 0 175 0 175 240 0 240 0
-6 -27z"/>
</g>
</svg>
